<svg xmlns="http://www.w3.org/2000/svg" xmlns:xlink="http://www.w3.org/1999/xlink" version="1.1" x="0px" y="0px" viewBox="0 0 100 100" enable-background="new 0 0 100 100" xml:space="preserve"><path d="M96,61c0-11-2-21-9-30C76.473,16.645,56.79,10.542,41.093,17.932C51.08,10.011,64.033,11.012,75,15  C50.258,2.202,28.43,19.978,18.827,42.242c0.02-0.563,0.056-1.128,0.129-1.697c0,0,0.665-4.83,3.109-11.767C32,7,63,2,82.213,14.691  c8.674,6.973,10.213,7.025,10.213,7.025L78.284,7.573c0,0-0.435,0.093-2.179-0.174C72,7,68,4,64,4c-8-1-16,0-23,3  c-17.502,6.667-29.432,26.53-25.4,44.541C15.383,52.36,15.182,53.18,15,54c-4-4-3-10-3.403-15.116  c0.908-7.152,2.407-12.049,2.407-12.049C0.91,53.159,22.091,74.787,46.306,81.197C40.871,81.615,35.435,79.812,30,78  C3,67,0,29,19.678,10.315c1.558-2.019,2.038-2.742,2.038-2.742s-3.688,3.658-7.343,7.373c-3.656,3.714-6.799,6.77-6.799,6.77  s-0.201,0.926-1.123,3.905C4,34,3,42,4,51c3.517,22.859,28.675,39.523,50.414,31.753C55.277,82.855,56.14,82.938,57,83  c-8,5-18,6-27,4c24.75,9.075,44.053-9.756,50.052-31.785C80.025,56.474,80,57.736,80,59c0,6-3,12-6,17c-15,21-45,22-63.422,4.568  c-2.214-1.735-3.004-2.284-3.004-2.284s3.953,4.033,7.37,7.393c3.417,3.36,6.772,6.75,6.772,6.75s0.873,0.159,3.642,0.925  C32,95,39,97,47,96c4-1,7-2,11-3c19.067-7.801,31.359-29.871,23.885-48.638C81.959,43.238,82,42.117,82,41c6,10,8,22,3,32  c8-15,3-33-9-44c-6.845-5.476-14.627-8.607-23.025-10.039C58.316,19.159,63.658,19.863,69,22c5,3,9,6,13,10  c16,17,11,43-2.792,58.518c-0.886,1.502-0.923,1.909-0.923,1.909l14.142-14.143c0,0-0.113-0.406,0.134-2.16C93,71,96,66,96,61z   M69,49.999c0,10.493-8.507,19-19,19c-10.494,0-19-8.507-19-19c0-10.494,8.506-19,19-19C60.493,30.999,69,39.505,69,49.999z"/></svg>